<?xml version="1.0" standalone="no"?><!DOCTYPE svg PUBLIC "-//W3C//DTD SVG 1.1//EN" "http://www.w3.org/Graphics/SVG/1.1/DTD/svg11.dtd"><svg t="1583227308021" class="icon" viewBox="0 0 1024 1024" version="1.1" xmlns="http://www.w3.org/2000/svg" p-id="8047" xmlns:xlink="http://www.w3.org/1999/xlink" width="200" height="200"><defs><style type="text/css"></style></defs><path d="M760.4 649.8c-18.2 0-32.9 14.7-32.9 32.9v152.2L502.1 691.5c-10.7-6.8-24.4-6.8-35.1 0L241.1 834.9v-671h486.3v43.8c0 11.8 6.3 22.6 16.4 28.5 10.2 5.9 22.7 5.9 32.9 0s16.4-16.7 16.4-28.5V131c0-18.2-14.7-32.9-32.9-32.9H208.3c-18.2 0-32.9 14.7-32.9 32.9v763.9c-0.1 12.2 6.5 23.5 17.3 29.3 10.8 5.8 23.9 5.1 34-1.7l258.3-164 258.3 164c10.1 6.4 22.9 6.8 33.3 1 10.5-5.7 17-16.7 17.1-28.7V681c-1-17.7-15.7-31.4-33.3-31.2z m0 0" fill="#DB3B32" p-id="8048"></path><path d="M887.5 423.5H782.3V317.9c0-12.1-9.8-21.9-21.9-21.9-12.1 0-21.9 9.8-21.9 21.9v105.7H632.7c-12.1 0-21.9 9.8-21.9 21.9 0 12.1 9.8 21.9 21.9 21.9h105.7v105.7c0 12.1 9.8 21.9 21.9 21.9 12.1 0 21.9-9.8 21.9-21.9V467.4H888c12.1-0.1 21.8-10 21.7-22.1-0.1-12.2-10.1-21.9-22.2-21.8z m0 0" fill="#FFA6A6" p-id="8049"></path></svg>