<?xml version="1.0" standalone="no"?><!DOCTYPE svg PUBLIC "-//W3C//DTD SVG 1.1//EN" "http://www.w3.org/Graphics/SVG/1.1/DTD/svg11.dtd"><svg t="1583227049008" class="icon" viewBox="0 0 1024 1024" version="1.1" xmlns="http://www.w3.org/2000/svg" p-id="4649" xmlns:xlink="http://www.w3.org/1999/xlink" width="200" height="200"><defs><style type="text/css"></style></defs><path d="M215.96825411 866.76190508c-12.16931221 0-22.75132237-10.05291036-22.75132237-22.75132237l0-65.60846542c0-130.68783106 78.83597901-247.08994717 200.52910019-295.767196l16.4021168-6.87830713-14.28571406-11.11111084c-45.5026456-35.97883594-71.95767188-89.41798916-71.95767188-147.08994697 0-103.17460342 84.12698408-186.77248682 186.77248682-186.77248682 103.17460342 0 186.77248682 84.12698408 186.77248682 186.77248682 0 57.67195781-25.92592558 111.11111104-71.95767188 147.08994697l-14.28571406 11.11111084 16.4021168 6.87830713c122.22222188 48.67724883 200.5291002 164.55026425 200.52910019 295.767196l0 65.60846542c0 12.16931221-10.05291036 22.75132237-22.75132236 22.75132237L215.96825411 866.76190508 215.96825411 866.76190508zM512.2645499 504.85714297c-150.79365088 0-273.54497344 122.22222188-273.54497344 273.54497344l0 42.85714306 546.5608462 0 0-42.85714306C785.28042354 627.60846552 663.05820078 504.85714297 512.2645499 504.85714297L512.2645499 504.85714297zM511.7354501 176.28571426c-78.30687832 0-141.7989419 63.49206357-141.7989419 141.79894189s63.49206357 141.7989419 141.7989419 141.7989419c78.30687832 0 141.7989419-63.49206357 141.7989419-141.7989419S590.04232842 176.28571426 511.7354501 176.28571426L511.7354501 176.28571426z" fill="#5587E6" p-id="4650"></path><path d="M84.75132237 767.82010625c-12.16931221 0-22.75132237-10.05291036-22.75132237-22.75132237l0-50.79365068c0-94.70899511 52.38095273-180.95238106 135.97883614-224.33862393l11.64021152-5.82010575-8.99470899-10.05291035c-25.92592558-28.57142901-40.21164052-65.07936474-40.21164052-103.17460343 0-71.42857119 48.67724883-133.33333359 117.98941816-149.73544951 1.58730117-0.52910068 3.70370391-0.52910068 5.29100507-0.52910068 10.58201016 0 19.57671914 6.87830713 22.22222257 17.46031729 2.64550253 12.16931221-4.7619044 24.33862441-16.4021168 26.98412695-49.20634951 12.16931221-83.06878271 55.55555596-83.06878272 106.34920664 0 42.85714307 25.39682578 82.01058223 64.55026494 99.47089951 2.64550253 1.05820136 4.7619044 2.64550253 6.87830714 4.7619044 0.52910068 0.52910068 0.52910068 0.52910068 1.05820136 1.05820136 1.05820136 1.05820136 1.58730117 2.64550253 2.64550254 4.7619044l0.52910068 0.52910068c0.52910068 1.05820136 0.52910068 1.58730117 1.05820138 2.64550254 0 0.52910068 0.52910068 1.05820136 0.52910068 1.58730118 0 0.52910068 0 1.58730117 0 2.64550253l0 0.52910068c0.52910068 2.11640185 0.52910068 3.70370391 0.52910068 5.29100508 0 0.52910068-0.52910068 1.05820136-0.52910068 1.58730117l-0.52910068 1.05820137c-0.52910068 1.05820136-0.52910068 1.58730117-0.5291007 2.64550254 0 0.52910068 0 1.05820136-0.52910068 1.58730117-3.17460322 6.87830713-9.52380967 12.16931221-17.46031728 13.22751358l-0.52910069 0-0.52910068 0c-92.0634917 23.28042305-156.61375664 105.82010596-156.61375664 201.05820087l0 50.79365069C106.97354492 758.29629658 96.92063458 767.82010625 84.75132237 767.82010625L84.75132237 767.82010625z" fill="#5587E6" p-id="4651"></path><path d="M939.24867763 767.82010625c-12.16931221 0-22.75132237-10.05291036-22.75132236-22.75132237l0-50.79365068c0-95.23809492-64.55026494-177.77777783-156.61375664-201.05820088l-0.52910068 0-0.52910068 0c-7.93650762-1.05820136-14.28571406-5.82010576-17.46031729-13.22751357 0-0.52910068 0-1.05820136-0.52910068-1.58730117 0-1.05820136-0.52910068-1.58730117-0.52910068-2.64550254l-0.5291007-1.05820137c0-0.52910068-0.52910068-1.05820136-0.52910068-1.58730117 0-1.58730117 0-2.64550253 0.52910068-4.7619044l0-0.52910068c0-0.52910068 0-1.58730117 0-2.64550253 0.52910068-0.52910068 0.52910068-1.05820136 0.5291007-1.58730117 0 0 0.52910068-0.52910068 0.52910068-1.58730118l0.52910068-1.05820137c1.05820136-2.64550253 2.11640185-3.70370391 3.17460322-4.7619044 0.52910068-0.52910068 0.52910068-0.52910068 1.05820137-1.05820136 1.58730117-1.58730117 4.23280459-3.70370391 6.87830713-4.76190439 39.15343916-17.46031729 64.55026494-56.61375645 64.55026494-99.47089951 0-49.20634951-33.33333339-92.59259239-80.42328018-105.29100528-12.16931221-3.17460322-19.57671914-15.87301612-15.87301611-28.04232832 2.64550253-10.05291036 11.64021152-16.9312166 21.69312187-16.9312166 2.11640185 0 3.70370391 0.52910068 5.82010577 0.52910069 67.19576748 17.98941797 113.75661357 79.36507969 113.75661357 148.67724902 0 38.09523779-14.28571406 74.60317441-40.21164052 103.17460341l-8.99470899 10.05291036 11.64021152 5.82010576c84.12698408 43.38624375 135.97883613 129.62962969 135.97883614 224.33862392l0 50.79365069C962 758.29629658 951.94708965 767.82010625 939.24867763 767.82010625L939.24867763 767.82010625z" fill="#5587E6" p-id="4652"></path></svg>